<?xml version="1.0" standalone="no"?>
<!DOCTYPE svg PUBLIC "-//W3C//DTD SVG 20010904//EN"
 "http://www.w3.org/TR/2001/REC-SVG-20010904/DTD/svg10.dtd">
<svg version="1.0" xmlns="http://www.w3.org/2000/svg"
 width="290.000000pt" height="290.000000pt" viewBox="0 0 290.000000 290.000000"
 preserveAspectRatio="xMidYMid meet">
<metadata>
Created by potrace 1.11, written by Peter Selinger 2001-2013
</metadata>
<g transform="translate(0.000000,290.000000) scale(0.100000,-0.100000)"
fill="#000000" stroke="none">
<path d="M380 2813 c-14 -3 -58 -20 -98 -39 -101 -49 -187 -134 -238 -238
l-39 -80 0 -1001 0 -1001 39 -78 c67 -137 201 -247 334 -275 61 -13 2112 -16
2112 -3 0 4 16 7 36 8 20 0 40 7 45 15 5 8 9 11 9 7 0 -4 13 -2 30 3 16 6 28
15 25 19 -3 5 0 12 6 16 8 4 9 3 5 -4 -10 -16 0 -15 29 4 14 9 22 21 18 27 -3
5 -1 7 4 4 13 -8 86 59 78 72 -3 5 0 13 6 17 8 4 9 3 5 -4 -4 -7 -3 -12 3 -12
10 0 27 39 23 53 -1 5 2 6 7 3 13 -8 41 39 44 73 1 16 6 27 11 23 5 -3 7 5 4
16 -4 14 -2 20 4 16 7 -5 9 3 6 20 -3 14 -1 29 3 32 5 3 9 431 9 955 0 523 -4
948 -8 945 -5 -3 -6 8 -4 25 3 17 0 29 -7 29 -6 0 -10 3 -10 8 4 24 -2 52 -11
47 -5 -3 -8 0 -5 7 6 16 -40 86 -95 144 -53 56 -112 97 -181 126 l-54 23
-1060 1 c-583 1 -1071 -1 -1085 -3z"/>
</g>
</svg>
